<svg viewBox="0 0 31 33" xmlns="http://www.w3.org/2000/svg">
<path d="M28.8352 27.0796C28.1482 26.4785 26.8315 25.9632 27.5757 24.8469C32.9573 17.0895 30.6959 4.69487 21.1636 1.48887C19.3316 0.830498 17.3851 0.515624 15.4671 0.515624C13.5492 0.515624 11.5741 0.859124 9.77068 1.48887C0.209768 4.7235 -2.02302 17.1181 3.35857 24.8469C4.10284 25.9346 2.78606 26.4785 2.09905 27.0796C1.64105 27.4517 1.58379 28.0815 1.95593 28.5109C2.75744 29.4269 3.58758 30.3429 4.41772 31.2302C4.81847 31.7169 5.44823 31.5737 5.87762 31.2302C7.91002 29.8849 9.91381 28.5395 11.9462 27.1941C12.1752 27.051 12.3183 26.8506 12.3756 26.593C12.4615 26.2209 12.3756 25.906 12.0607 25.6484C11.1733 24.8182 10.4863 23.8736 9.97106 22.7572C8.85466 20.2382 8.53978 16.8891 9.39855 14.2556C10.2859 11.4217 12.7764 9.876 15.4671 9.876C18.1579 9.876 20.6484 11.4217 21.5357 14.2556C22.3659 16.8891 22.0796 20.2382 20.9632 22.7572C20.448 23.845 19.761 24.8182 18.8736 25.6484C18.5873 25.906 18.4728 26.2209 18.5587 26.593C18.616 26.8506 18.7591 27.051 18.9881 27.1941C21.0205 28.5395 23.0243 29.8849 25.0567 31.2302C25.4861 31.5737 26.1158 31.6882 26.5166 31.2302C27.3467 30.3142 28.1482 29.4269 28.9784 28.5109C29.3791 28.0815 29.2933 27.4517 28.8352 27.0796Z" />
</svg>
